:SAMPLES-PER-SECOND 25
:FULLY-SPECIFIED
:DEGREES
478
root  11.2777 67.0214 37.2783 4.93531 -63.8877 -1.3646
RightUpLeg  -15.5262 -0.0965274 2.04161
RightLeg  7.19098 -37.9722 -1.62959
RightFoot  -1.07835 0.39233 -4.44772
RightToes  2.84633e-005 7.89722e-005 -0.000426369
Spine  0.54689 -0.494602 1.92332
Spine1  1.08144 -0.996066 3.96143
HEad  24.9034 -13.7358 -3.96502
LeftShoulder1  -3.88251e-019 0 -3.92111e-022
LeftArm  -36.6597 3.12022 -85.839
LeftForeArm  35.1866 1.87199 1.699
LeftHand  -0.680622 -4.53385 8.24401
RightShoulder  7.45443e-017 -2.42657e-020 1.96277e-018
RightArm  -12.2104 -9.06398 74.9137
RightForeArm  27.2548 10.7059 11.5948
RightHand  -1.15277 10.2512 -8.91877
LeftUpLeg  -3.9927 -1.59946 -5.91782
LeftLeg  8.84979 39.3953 4.22223
LeftFoot  -7.9517 0.0608313 -0.430862
LeftToes  3.91355e-005 3.11907e-005 -4.10385e-006
479
root  10.9652 67.0805 37.4047 5.15939 -65.4339 -1.5485
RightUpLeg  -14.3211 0.508338 2.44196
RightLeg  5.41483 -36.6186 -0.905414
RightFoot  -0.985369 0.293862 -3.31376
RightToes  2.84633e-005 7.89722e-005 -0.000426369
Spine  0.508702 -0.895752 2.20762
Spine1  0.976135 -1.82696 4.21456
HEad  25.3793 -14.0431 -4.3759
LeftShoulder1  -3.88251e-019 0 -3.92111e-022
LeftArm  -36.0358 2.48611 -86.2797
LeftForeArm  36.7839 1.84883 1.42016
LeftHand  -0.670759 -4.61104 8.07018
RightShoulder  7.45443e-017 -2.42657e-020 1.96277e-018
RightArm  -11.4754 -10.2651 74.254
RightForeArm  25.1428 11.3251 11.4891
RightHand  -0.995594 10.1017 -7.83202
LeftUpLeg  -4.21454 0.622293 -5.20088
LeftLeg  10.8344 37.9681 4.20645
LeftFoot  -8.41923 0.0889648 -1.47845
LeftToes  3.91355e-005 3.11907e-005 -4.10385e-006
480
root  10.6376 67.0782 37.5001 5.1431 -67.3754 -1.77948
RightUpLeg  -13.4707 0.894265 3.05075
RightLeg  5.26946 -34.5001 -1.23733
RightFoot  -1.5486 0.185132 -2.2843
RightToes  2.84633e-005 7.89722e-005 -0.000426369
Spine  0.541871 -1.04287 2.53251
Spine1  1.02277 -2.14237 4.47071
HEad  25.8735 -14.8116 -4.65524
LeftShoulder1  -3.88251e-019 0 -3.92111e-022
LeftArm  -35.6251 1.791 -86.4609
LeftForeArm  38.0878 1.85952 0.876545
LeftHand  -0.702324 -4.48897 8.53281
RightShoulder  7.45443e-017 -2.42657e-020 1.96277e-018
RightArm  -13.4524 -11.5125 73.7234
RightForeArm  25.34 10.9175 11.3745
RightHand  -0.921236 10.0661 -7.2954
LeftUpLeg  -5.02517 8.64763 -4.75792
LeftLeg  14.4491 30.4647 5.37531
LeftFoot  -9.43914 0.117522 -3.78255
LeftToes  3.91355e-005 3.11907e-005 -4.10385e-006
481
root  10.3222 67.0181 37.5942 5.12126 -69.8892 -2.43285
RightUpLeg  -12.6623 1.13928 3.68266
RightLeg  6.10138 -31.7687 -1.72265
RightFoot  -2.64658 0.0712308 -1.17289
RightToes  2.84633e-005 7.89722e-005 -0.000426369
Spine  0.744823 -0.989699 2.94294
Spine1  1.41074 -2.04817 4.74836
HEad  26.3086 -15.5207 -4.84052
LeftShoulder1  -3.88251e-019 0 -3.92111e-022
LeftArm  -35.5199 1.36659 -86.4253
LeftForeArm  37.8892 1.91997 0.323403
LeftHand  -0.72893 -4.42921 8.89422
RightShoulder  7.45443e-017 -2.42657e-020 1.96277e-018
RightArm  -17.3636 -12.587 73.5945
RightForeArm  27.7567 9.8843 10.9327
RightHand  -0.953096 9.91757 -7.60021
LeftUpLeg  -6.59143 19.2975 -4.60099
LeftLeg  19.5085 18.1667 7.30547
LeftFoot  -9.45229 0.188783 -8.011
LeftToes  3.91355e-005 3.11907e-005 -4.10385e-006
482
root  10.021 66.9024 37.7087 5.61509 -73.0357 -3.88657
RightUpLeg  -11.9283 1.17239 4.28152
RightLeg  7.6681 -28.5884 -1.97679
RightFoot  -4.28406 -0.0287455 -0.00129199
RightToes  2.84633e-005 7.89722e-005 -0.000426369
Spine  1.04597 -0.808409 3.4471
Spine1  1.99406 -1.66608 5.12773
HEad  27.0786 -15.6943 -5.2276
LeftShoulder1  -3.88251e-019 0 -3.92111e-022
LeftArm  -35.4497 1.3665 -86.3319
LeftForeArm  36.6454 2.00626 -0.166363
LeftHand  -0.730606 -4.52143 8.83631
RightShoulder  7.45443e-017 -2.42657e-020 1.96277e-018
RightArm  -20.5869 -13.5509 73.6241
RightForeArm  29.5811 8.98443 10.3861
RightHand  -1.04841 9.59686 -8.48244
LeftUpLeg  -8.17944 18.4502 -2.87399
LeftLeg  26.7368 12.8977 7.28079
LeftFoot  -7.05594 0.51545 -12.5821
LeftToes  3.91355e-005 3.11907e-005 -4.10385e-006
483
root  9.71775 66.7499 37.8385 7.40674 -76.8093 -6.86643
RightUpLeg  -11.1646 1.15282 5.07968
RightLeg  9.68295 -24.8744 -2.225
RightFoot  -6.23502 -0.0903183 1.08684
RightToes  2.84633e-005 7.89722e-005 -0.000426369
Spine  1.43213 -0.575872 4.05518
Spine1  2.7466 -1.13938 5.71965
HEad  27.8895 -15.4853 -5.75671
LeftShoulder1  -3.88251e-019 0 -3.92111e-022
LeftArm  -35.336 1.67729 -86.2533
LeftForeArm  35.49 2.09876 -0.692641
LeftHand  -0.748094 -4.55255 9.01372
RightShoulder  7.45443e-017 -2.42657e-020 1.96277e-018
RightArm  -22.9783 -14.224 73.5254
RightForeArm  30.1725 8.0654 10.0141
RightHand  -1.1657 9.4198 -9.48738
LeftUpLeg  -9.82077 15.5475 -0.8337
LeftLeg  34.3866 6.96405 5.42832
LeftFoot  -4.43768 0.911385 -14.6841
LeftToes  3.91355e-005 3.11907e-005 -4.10385e-006
484
root  9.41325 66.6117 38.0191 11.437 -81.2411 -12.1318
RightUpLeg  -10.2803 0.901124 5.87297
RightLeg  11.502 -20.1749 -2.22507
RightFoot  -7.73302 -0.0991616 1.46958
RightToes  2.84633e-005 7.89722e-005 -0.000426369
Spine  1.86765 -0.35333 4.60736
Spine1  3.60149 -0.599977 6.24524
HEad  28.3229 -15.1818 -5.98875
LeftShoulder1  -3.88251e-019 0 -3.92111e-022
LeftArm  -35.2232 2.29657 -85.9705
LeftForeArm  34.7112 2.17498 -1.1359
LeftHand  -0.762474 -4.46129 9.26106
RightShoulder  7.45443e-017 -2.42657e-020 1.96277e-018
RightArm  -25.0814 -14.4077 73.6352
RightForeArm  30.6671 7.05571 9.31384
RightHand  -1.21878 9.47231 -9.86755
LeftUpLeg  -11.2706 12.3371 0.802011
LeftLeg  41.516 4.03243 4.21434
LeftFoot  -3.95069 0.873071 -13.0931
LeftToes  3.91355e-005 3.11907e-005 -4.10385e-006
485
root  9.13132 66.5536 38.2632 37.3163 -86.1392 -38.735
RightUpLeg  -9.7721 0.599132 6.20311
RightLeg  12.7918 -14.6093 -1.82087
RightFoot  -8.27614 -0.0628876 0.249765
RightToes  2.84633e-005 7.89722e-005 -0.000426369
Spine  2.11666 -0.120188 4.83368
Spine1  4.09762 -0.0564228 6.31404
HEad  28.6858 -14.5275 -5.9005
LeftShoulder1  -3.88251e-019 0 -3.92111e-022
LeftArm  -35.2967 3.35694 -85.4124
LeftForeArm  34.2492 2.19271 -1.19869
LeftHand  -0.71571 -4.45053 8.72045
RightShoulder  7.45443e-017 -2.42657e-020 1.96277e-018
RightArm  -26.2715 -14.4064 74.0686
RightForeArm  31.1581 6.37935 8.35395
RightHand  -1.19572 9.5969 -9.61355
LeftUpLeg  -12.7443 9.54036 1.34119
LeftLeg  46.6522 5.05503 6.14841
LeftFoot  -4.15338 0.599756 -9.14264
LeftToes  3.91355e-005 3.11907e-005 -4.10385e-006
486
root  8.86461 66.5612 38.5097 149.872 -87.1009 -151.504
RightUpLeg  -9.69415 0.857515 6.31855
RightLeg  13.7391 -9.06836 -1.45132
RightFoot  -8.43178 -0.0111674 -1.80716
RightToes  2.84633e-005 7.89722e-005 -0.000426369
Spine  2.16058 0.0968081 4.78784
Spine1  4.20341 0.387709 6.12817
HEad  29.085 -13.48 -5.82128
LeftShoulder1  -3.88251e-019 0 -3.92111e-022
LeftArm  -35.7084 4.5557 -84.8469
LeftForeArm  33.9991 2.14247 -0.795269
LeftHand  -0.659043 -4.54618 7.98297
RightShoulder  7.45443e-017 -2.42657e-020 1.96277e-018
RightArm  -26.5437 -14.4981 74.2635
RightForeArm  31.2654 6.11841 8.04351
RightHand  -1.16454 9.72143 -9.30203
LeftUpLeg  -14.1855 7.06126 1.3066
LeftLeg  48.7499 6.91889 8.8071
LeftFoot  -4.41339 0.332054 -5.04691
LeftToes  3.91355e-005 3.11907e-005 -4.10385e-006
487
root  8.57447 66.5842 38.7219 172.095 -81.5675 -174.032
RightUpLeg  -9.22497 1.68397 6.42592
RightLeg  14.2311 -4.16772 -0.985768
RightFoot  -8.69358 0.00907785 -2.93011
RightToes  2.84633e-005 7.89722e-005 -0.000426369
Spine  2.26807 0.208353 4.66344
Spine1  4.44964 0.573903 5.97109
HEad  29.2413 -12.5211 -5.71357
LeftShoulder1  -3.88251e-019 0 -3.92111e-022
LeftArm  -36.1868 5.3619 -84.3754
LeftForeArm  33.6949 2.0625 -0.0595806
LeftHand  -0.666288 -4.54783 8.06619
RightShoulder  7.45443e-017 -2.42657e-020 1.96277e-018
RightArm  -26.4938 -14.5054 74.1191
RightForeArm  31.3833 6.09451 8.39581
RightHand  -1.14891 9.80165 -9.13779
LeftUpLeg  -14.9868 4.62507 1.52503
LeftLeg  47.6416 7.9737 9.67877
LeftFoot  -5.8231 0.148339 -2.35547
LeftToes  3.91355e-005 3.11907e-005 -4.10385e-006
488
root  8.26138 66.6147 38.9239 174.709 -75.8118 -177.162
RightUpLeg  -8.22346 2.26787 6.3909
RightLeg  14.1818 0.722828 -0.0276472
RightFoot  -8.81711 0.00365052 -2.87342
RightToes  2.84633e-005 7.89722e-005 -0.000426369
Spine  2.49036 0.212465 4.47117
Spine1  4.93165 0.517677 5.84395
HEad  29.3156 -11.6833 -5.43727
LeftShoulder1  -3.88251e-019 0 -3.92111e-022
LeftArm  -36.5654 5.74075 -83.9482
LeftForeArm  33.7604 1.97456 0.839684
LeftHand  -0.680584 -4.44338 8.31384
RightShoulder  7.45443e-017 -2.42657e-020 1.96277e-018
RightArm  -26.4745 -14.277 74.0896
RightForeArm  32.0481 6.06663 8.50587
RightHand  -1.19311 9.94854 -9.38668
LeftUpLeg  -15.0559 1.74949 2.08819
LeftLeg  43.864 8.69932 9.24021
LeftFoot  -7.36962 0.0768516 -0.958919
LeftToes  3.91355e-005 3.11907e-005 -4.10385e-006
489
root  7.94724 66.6516 39.125 175.463 -70.0088 -178.29
RightUpLeg  -7.35761 2.5574 6.25892
RightLeg  14.0718 5.87912 1.25824
RightFoot  -8.93824 -0.012176 -2.30782
RightToes  2.84633e-005 7.89722e-005 -0.000426369
Spine  2.66549 0.190436 4.23241
Spine1  5.31897 0.385026 5.82355
HEad  29.6215 -10.7765 -5.15751
LeftShoulder1  -3.88251e-019 0 -3.92111e-022
LeftArm  -37.0935 5.99996 -83.7277
LeftForeArm  34.7252 1.87896 1.79294
LeftHand  -0.644015 -4.35905 7.94595
RightShoulder  7.45443e-017 -2.42657e-020 1.96277e-018
RightArm  -26.4777 -13.8798 74.1778
RightForeArm  32.5414 5.63182 8.00426
RightHand  -1.3115 10.2364 -10.0947
LeftUpLeg  -14.8645 -1.84829 2.93947
LeftLeg  38.2876 9.14343 8.02073
LeftFoot  -8.09872 0.0582078 -0.339323
LeftToes  3.91355e-005 3.11907e-005 -4.10385e-006
